<svg xmlns="http://www.w3.org/2000/svg" viewBox="0 0 400 30" fill="none">
  <!-- Left line -->
  <line x1="0" y1="15" x2="158" y2="15" stroke="#c9a84c" stroke-width="0.8" opacity="0.6"/>
  <!-- Left ornament -->
  <polygon points="162,15 168,11 170,15 168,19" fill="#c9a84c" opacity="0.7"/>
  <!-- Center diamond cluster -->
  <polygon points="182,15 188,9 194,15 188,21" fill="none" stroke="#c9a84c" stroke-width="1" opacity="0.9"/>
  <polygon points="191,15 197,11 200,15 197,19" fill="#c9a84c" opacity="0.8"/>
  <polygon points="200,15 203,11 206,15 203,19" fill="#c9a84c" opacity="0.8"/>
  <polygon points="206,15 212,9 218,15 212,21" fill="none" stroke="#c9a84c" stroke-width="1" opacity="0.9"/>
  <!-- Right ornament -->
  <polygon points="230,11 232,15 230,19 238,15" fill="#c9a84c" opacity="0.7"/>
  <!-- Right line -->
  <line x1="242" y1="15" x2="400" y2="15" stroke="#c9a84c" stroke-width="0.8" opacity="0.6"/>
  <!-- Small dots -->
  <circle cx="75" cy="15" r="1.5" fill="#c9a84c" opacity="0.4"/>
  <circle cx="325" cy="15" r="1.5" fill="#c9a84c" opacity="0.4"/>
</svg>
